<svg width="99" height="14" viewBox="0 0 99 14" xmlns="http://www.w3.org/2000/svg">
    <path fill="#000" d="M1.88672 0C3.45875 0.000168653 4.7334 1.27461 4.7334 2.84668V9.7998C4.7334 10.8307 5.56966 11.667 6.60059 11.667C7.63124 11.6667 8.4668 10.8305 8.4668 9.7998V4.92285C8.46706 2.20399 10.6717 0 13.3906 0C16.1093 0.000341475 18.3132 2.2042 18.3135 4.92285V14H16.2607C15.23 14 14.3938 13.1645 14.3936 12.1338V4.71289C14.3933 3.39877 13.3278 2.33319 12.0137 2.33301C10.6994 2.33301 9.63403 3.39866 9.63379 4.71289V9.68359C9.63365 12.0673 7.701 13.9996 5.31738 14C2.93344 14 1.00014 12.0675 1 9.68359V0H1.88672ZM19.9004 2.33301C22.191 2.33321 24.0753 4.07095 24.3086 6.2998C24.3246 6.45314 24.333 6.60902 24.333 6.7666V14H22.6768C21.646 14 20.8098 13.1645 20.8096 12.1338V6.2998C20.8095 4.73481 20.0524 3.34138 18.9102 2.44434C18.9291 2.44001 18.9487 2.43572 18.9678 2.43164C19.2683 2.36734 19.5807 2.33301 19.9004 2.33301Z"></path>
    <path fill="#000" d="M98.4239 12.8061H96.4687V11.3842C96.1563 11.8259 95.7632 12.2029 95.2892 12.5153C94.826 12.8277 94.2497 12.9838 93.5603 12.9838C93.054 12.9838 92.5639 12.8869 92.0899 12.693C91.6159 12.4991 91.1958 12.2136 90.8296 11.8366C90.4633 11.4488 90.1671 10.9803 89.9409 10.4309C89.7147 9.88151 89.6016 9.25134 89.6016 8.54039C89.6016 7.82943 89.7093 7.19927 89.9247 6.6499C90.1509 6.10052 90.4472 5.63733 90.8134 5.26031C91.1797 4.87251 91.5998 4.58167 92.0737 4.38777C92.5585 4.19388 93.054 4.09693 93.5603 4.09693C94.2605 4.09693 94.8422 4.24774 95.3054 4.54935C95.7685 4.85097 96.1563 5.20106 96.4687 5.59963V2.08794C96.4687 1.49302 96.951 1.01074 97.5459 1.01074H98.4239V12.8061ZM96.501 8.54039C96.501 8.12028 96.431 7.74326 96.291 7.40933C96.1617 7.07539 95.984 6.78993 95.7578 6.55295C95.5316 6.30519 95.2677 6.11668 94.966 5.98742C94.6644 5.85815 94.352 5.79352 94.0289 5.79352C93.6949 5.79352 93.3772 5.85815 93.0755 5.98742C92.7847 6.10591 92.5262 6.28365 92.3 6.52063C92.0737 6.75762 91.896 7.04846 91.7667 7.39317C91.6375 7.7271 91.5728 8.10951 91.5728 8.54039C91.5728 8.9605 91.6375 9.3429 91.7667 9.68761C91.896 10.0215 92.0737 10.307 92.3 10.544C92.5262 10.781 92.7847 10.9641 93.0755 11.0934C93.3772 11.2226 93.6949 11.2873 94.0289 11.2873C94.352 11.2873 94.6644 11.2226 94.966 11.0934C95.2677 10.9641 95.5316 10.781 95.7578 10.544C95.984 10.2962 96.1617 10.0054 96.291 9.67145C96.431 9.33752 96.501 8.9605 96.501 8.54039Z"></path>
    <path fill="#000" d="M82.185 7.99101V12.9138H80.2299V4.27466H82.185V5.59962C82.3251 5.39495 82.4759 5.20644 82.6375 5.03409C82.8098 4.85097 83.0037 4.68939 83.2192 4.54935C83.4454 4.40931 83.6877 4.30159 83.9463 4.22619C84.2156 4.14001 84.5172 4.09692 84.8511 4.09692C85.8206 4.09692 86.5693 4.39315 87.0971 4.98562C87.6249 5.57808 87.8888 6.37521 87.8888 7.37701V12.9138H87.0109C86.416 12.9138 85.9337 12.4315 85.9337 11.8366V7.9587C85.9337 7.29083 85.7721 6.77916 85.449 6.42368C85.1366 6.05743 84.6895 5.87431 84.1078 5.87431C83.5369 5.87431 83.0737 6.06282 82.7183 6.43984C82.3628 6.80609 82.185 7.32315 82.185 7.99101Z"></path>
    <path fill="#000" d="M78.0755 12.9139H76.0288V4.29626H78.0755V12.9139Z"></path>
    <path fill="#000" d="M68.49 9.46677C68.5619 9.46677 68.629 9.43093 68.669 9.37121L71.8008 4.69477V12.9138H73.7882V1.38776H71.6715L68.2299 6.84379L64.7882 1.38776H62.6715V12.9138H64.6266V4.72708L67.7273 9.37096C67.7672 9.43083 67.8345 9.46677 67.9064 9.46677H68.49Z"></path>
    <path fill="#000" d="M76.9445 3.04668H77.0522C77.6174 3.04668 78.0755 2.58852 78.0755 2.02334C78.0755 1.45817 77.6174 1 77.0522 1H76.9445C76.3793 1 75.9211 1.45817 75.9211 2.02334C75.9211 2.58852 76.3793 3.04668 76.9445 3.04668Z"></path>
    <path fill="#000" d="M57.593 9.08981V4.27472H59.5481V12.9139H58.6702C58.0753 12.9139 57.593 12.4316 57.593 11.8367V11.4812C57.3129 11.8905 56.9628 12.246 56.5427 12.5476C56.1226 12.8385 55.584 12.9839 54.9269 12.9839C53.9574 12.9839 53.2088 12.6877 52.681 12.0952C52.1531 11.5027 51.8892 10.7056 51.8892 9.70382V4.27472H52.7671C53.3621 4.27472 53.8443 4.757 53.8443 5.35192V9.12213C53.8443 9.78999 54.0005 10.3071 54.3129 10.6733C54.6361 11.0288 55.0885 11.2065 55.6702 11.2065C56.2411 11.2065 56.7043 11.0234 57.0598 10.6571C57.4153 10.2801 57.593 9.75768 57.593 9.08981Z"></path>
    <path fill="#000" d="M49.8528 8.54039C49.8528 9.15439 49.735 9.73069 49.4992 10.2693C49.2742 10.8079 48.9582 11.2819 48.551 11.6912C48.1546 12.0898 47.6778 12.4075 47.1206 12.6445C46.5634 12.8815 45.9581 13 45.3045 13C44.6616 13 44.0616 12.8869 43.5044 12.6607C42.958 12.4237 42.4812 12.1059 42.074 11.7074C41.6776 11.298 41.3668 10.8294 41.1418 10.3016C40.9168 9.76301 40.8043 9.18671 40.8043 8.5727C40.8043 7.9587 40.9168 7.38239 41.1418 6.84379C41.3776 6.29442 41.6936 5.82045 42.0901 5.42188C42.4972 5.01255 42.974 4.68939 43.5205 4.4524C44.0776 4.21542 44.683 4.09692 45.3366 4.09692C45.9902 4.09692 46.5902 4.21542 47.1367 4.4524C47.6938 4.67861 48.1706 4.99639 48.5671 5.40573C48.9742 5.80429 49.2903 6.27287 49.5153 6.81147C49.7403 7.35008 49.8528 7.92638 49.8528 8.54039ZM47.9081 8.5727C47.9081 8.19568 47.8438 7.8402 47.7153 7.50627C47.5867 7.17234 47.4045 6.88149 47.1688 6.63374C46.9438 6.37521 46.6706 6.17592 46.3491 6.03589C46.0384 5.88508 45.6902 5.80968 45.3045 5.80968C44.9187 5.80968 44.5652 5.88508 44.2437 6.03589C43.933 6.17592 43.6651 6.36982 43.4401 6.61758C43.2151 6.86533 43.0437 7.15618 42.9258 7.49011C42.808 7.81327 42.749 8.16336 42.749 8.54039C42.749 8.91741 42.8133 9.27827 42.9419 9.62297C43.0705 9.95691 43.2473 10.2478 43.4723 10.4955C43.708 10.7433 43.9812 10.9425 44.2919 11.0934C44.6134 11.2334 44.9616 11.3034 45.3366 11.3034C45.7331 11.3034 46.0866 11.2334 46.3974 11.0934C46.7188 10.9425 46.992 10.7433 47.217 10.4955C47.442 10.2478 47.6135 9.96229 47.7313 9.63913C47.8492 9.3052 47.9081 8.94972 47.9081 8.5727Z"></path>
    <path fill="#000" d="M36.4955 8.29801V12.9138H34.4919V8.34648L30 1.38776H31.7428C32.1159 1.38776 32.4624 1.5808 32.6588 1.89803L35.5099 6.50447L38.3927 1.89387C38.5896 1.57901 38.9348 1.38776 39.3061 1.38776H40.9875L36.4955 8.29801Z"></path>
</svg>