<?xml version="1.0" encoding="iso-8859-1"?>
<!-- Uploaded to: SVG Repo, www.svgrepo.com, Generator: SVG Repo Mixer Tools -->
<svg fill="#000000" height="800px" width="800px" version="1.1" id="Layer_1" xmlns="http://www.w3.org/2000/svg" xmlns:xlink="http://www.w3.org/1999/xlink" 
	 viewBox="0 0 399.9 399.9" xml:space="preserve">
<g>
	<g>
		<path d="M366.5,89.1h-24.1l-23.2-50.3c-1.8-3.9-5.8-6.5-10.1-6.5H201.7c-4.3,0-8.3,2.5-10.1,6.5l-23.2,50.3h-49.9V62.4
			c0-6.1-5-11.1-11.1-11.1H50.2c-6.1,0-11.1,5-11.1,11.1v26.7h-5.8c-18.4,0-33.3,15-33.3,33.3v211.9c0,18.4,15,33.3,33.3,33.3h333.3
			c18.4,0,33.3-15,33.3-33.3V122.4C399.8,104.1,384.8,89.1,366.5,89.1z M208.8,54.6H302l15.9,34.5H192.8L208.8,54.6z M61.2,73.5h35
			v15.6h-35V73.5z M366.5,345.4H33.1c-6.1,0-11.1-5-11.1-11.1V227h17.3c6.1,0,11.1-5,11.1-11.1c0-6.1-5-11.1-11.1-11.1H22v-22.2
			h39.5c6.1,0,11.1-5,11.1-11.1c0-6.1-5-11.1-11.1-11.1H22v-37.9c0-6.1,5-11.1,11.1-11.1h333.3c6.1,0,11.1,5,11.1,11.1v211.8h0.1
			C377.6,340.4,372.6,345.4,366.5,345.4z"/>
	</g>
</g>
<g>
	<g>
		<path d="M255.4,130.8c-53.8,0-97.6,43.8-97.6,97.6s43.8,97.6,97.6,97.6c53.8,0,97.6-43.8,97.6-97.6
			C352.9,174.6,309.1,130.8,255.4,130.8z M255.4,303.7c-41.5,0-75.3-33.8-75.3-75.3s33.8-75.3,75.3-75.3s75.3,33.8,75.3,75.3
			C330.7,269.9,296.9,303.7,255.4,303.7z"/>
	</g>
</g>
<g>
	<g>
		<path d="M255.4,175.3c-29.3,0-53.1,23.8-53.1,53.1s23.8,53.1,53.1,53.1c29.3,0,53.1-23.8,53.1-53.1
			C308.5,199.1,284.6,175.3,255.4,175.3z M255.4,259.3c-17,0-30.9-13.9-30.9-30.9s13.9-30.9,30.9-30.9s30.9,13.9,30.9,30.9
			S272.4,259.3,255.4,259.3z"/>
	</g>
</g>
<g>
	<g>
		<path d="M353.8,127.8h-9.9c-6.1,0-11.1,5-11.1,11.1c0,6.1,5,11.1,11.1,11.1h9.9c6.1,0,11.1-5,11.1-11.1
			C364.9,132.8,360,127.8,353.8,127.8z"/>
	</g>
</g>
<g>
	<g>
		<path d="M117.2,138.8c-6.1,0-11.1,5-11.1,11.1v156.9c0,6.1,5,11.1,11.1,11.1c6.1,0,11.1-5,11.1-11.1V149.9
			C128.3,143.8,123.3,138.8,117.2,138.8z"/>
	</g>
</g>
</svg>